<?xml version="1.0" standalone="no"?>
<!DOCTYPE svg PUBLIC "-//W3C//DTD SVG 20010904//EN"
 "http://www.w3.org/TR/2001/REC-SVG-20010904/DTD/svg10.dtd">
<svg version="1.0" xmlns="http://www.w3.org/2000/svg"
 width="2000.000000pt" height="1247.000000pt" viewBox="0 0 2000.000000 1247.000000"
 preserveAspectRatio="xMidYMid meet">

<g transform="translate(0.000000,1247.000000) scale(0.100000,-0.100000)"
fill="#000000" stroke="none">
<path d="M11955 12464 c-22 -2 -105 -9 -185 -14 -494 -37 -1061 -157 -1547
-329 -676 -238 -1273 -571 -1842 -1025 l-113 -91 272 -3 273 -2 176 118 c851
574 1773 899 2821 994 215 19 789 16 1010 -6 757 -74 1408 -257 2065 -581 611
-301 1076 -635 1566 -1124 319 -320 529 -576 764 -931 481 -728 801 -1581 914
-2440 41 -313 46 -399 46 -795 0 -396 -5 -482 -46 -795 -81 -615 -259 -1202
-539 -1776 -224 -460 -460 -825 -796 -1229 -139 -167 -542 -570 -709 -709
-390 -324 -757 -563 -1200 -781 -1159 -571 -2456 -742 -3735 -494 -524 102
-1014 270 -1500 514 -241 121 -390 207 -637 371 l-202 134 -272 -2 -271 -3
113 -91 c923 -740 2020 -1199 3184 -1333 503 -58 1092 -53 1570 14 1482 209
2789 903 3796 2015 736 813 1257 1854 1473 2940 137 692 156 1419 55 2130
-266 1876 -1411 3555 -3074 4510 -767 440 -1595 702 -2515 796 -145 15 -813
28 -915 18z"/>
<path d="M3970 6235 l0 -3855 675 0 675 0 0 1755 0 1755 1590 0 1590 0 0
-1755 0 -1755 675 0 675 0 0 3855 0 3855 -675 0 -675 0 0 -1605 0 -1605 -1590
0 -1590 0 0 1605 0 1605 -675 0 -675 0 0 -3855z"/>
<path d="M11460 6235 l0 -3855 675 0 675 0 0 1720 0 1720 1240 0 c682 0 1240
2 1240 5 0 9 160 969 165 993 l5 22 -1325 0 -1325 0 0 1115 0 1115 1610 0
1610 0 0 510 0 510 -2285 0 -2285 0 0 -3855z"/>
</g>
</svg>
